<svg width="64" height="64" viewBox="0 0 64 64" version="1.1" xmlns="http://www.w3.org/2000/svg" xmlns:xlink="http://www.w3.org/1999/xlink">
<title>Body</title>
<desc>Created using Figma</desc>
<g id="Canvas" transform="translate(82 136)">
<g id="Body">
<g id="Vector">
<use xlink:href="#path0_stroke" transform="translate(-78 -132)"/>
</g>
<g id="Vector">
<use xlink:href="#path1_stroke" transform="translate(-42 -132)"/>
</g>
<g id="Vector">
<use xlink:href="#path2_stroke" transform="translate(-59 -132)"/>
</g>
</g>
</g>
<defs>
<path id="path0_stroke" d="M 3.49499 -0.187232C 3.39158 -2.11746 1.743 -3.59839 -0.187232 -3.49499C -2.11746 -3.39158 -3.59839 -1.743 -3.49499 0.187232L 3.49499 -0.187232ZM 3 56L -0.494988 56.1872C -0.395475 58.0448 1.13976 59.5 3 59.5L 3 56ZM 53 56L 53 59.5C 54.8602 59.5 56.3955 58.0448 56.495 56.1872L 53 56ZM 59.495 0.187232C 59.5984 -1.743 58.1175 -3.39158 56.1872 -3.49499C 54.257 -3.59839 52.6084 -2.11746 52.505 -0.187232L 59.495 0.187232ZM -3.49499 0.187232L -0.494988 56.1872L 6.49499 55.8128L 3.49499 -0.187232L -3.49499 0.187232ZM 3 59.5L 53 59.5L 53 52.5L 3 52.5L 3 59.5ZM 56.495 56.1872L 59.495 0.187232L 52.505 -0.187232L 49.505 55.8128L 56.495 56.1872Z"/>
<path id="path1_stroke" d="M 4.49902 0.0828256C 4.54476 -1.84963 3.01528 -3.45328 1.08283 -3.49902C -0.84963 -3.54476 -2.45328 -2.01528 -2.49902 -0.0828256L 4.49902 0.0828256ZM -3.49902 42.1628C -3.54476 44.0952 -2.01528 45.6989 -0.0828256 45.7446C 1.84963 45.7904 3.45328 44.2609 3.49902 42.3284L -3.49902 42.1628ZM -2.49902 -0.0828256L -3.49902 42.1628L 3.49902 42.3284L 4.49902 0.0828256L -2.49902 -0.0828256Z"/>
<path id="path2_stroke" d="M 3.49902 -0.0828256C 3.45328 -2.01528 1.84963 -3.54476 -0.0828256 -3.49902C -2.01528 -3.45328 -3.54476 -1.84963 -3.49902 0.0828256L 3.49902 -0.0828256ZM -2.49902 42.3284C -2.45328 44.2609 -0.84963 45.7904 1.08283 45.7446C 3.01528 45.6989 4.54476 44.0952 4.49902 42.1628L -2.49902 42.3284ZM -3.49902 0.0828256L -2.49902 42.3284L 4.49902 42.1628L 3.49902 -0.0828256L -3.49902 0.0828256Z"/>
</defs>
</svg>
